<?xml version="1.0" standalone="no"?>
<!DOCTYPE svg PUBLIC "-//W3C//DTD SVG 20010904//EN"
 "http://www.w3.org/TR/2001/REC-SVG-20010904/DTD/svg10.dtd">
<svg version="1.0" xmlns="http://www.w3.org/2000/svg"
 width="441.000000pt" height="61.000000pt" viewBox="0 0 441.000000 61.000000"
 preserveAspectRatio="xMidYMid meet">

<g transform="translate(0.000000,61.000000) scale(0.100000,-0.100000)"
fill="#000000" stroke="none">
<path d="M674 588 c-42 -11 -132 -108 -185 -201 -24 -39 -54 -85 -68 -102 -23
-26 -23 -27 -3 -10 l23 19 -21 -53 c-11 -30 -19 -56 -16 -58 2 -3 20 19 38 49
34 52 100 118 118 118 22 0 17 -20 -14 -61 -43 -55 -51 -82 -31 -99 19 -15 55
-7 86 21 l24 21 -25 -16 c-46 -30 -51 -18 -18 45 25 47 29 64 21 77 -17 29
-49 25 -89 -10 l-38 -33 20 33 c61 106 181 232 220 232 43 0 -14 -85 -96 -143
-20 -14 -18 -14 8 1 131 75 165 202 46 170z"/>
<path d="M2721 580 c-142 -38 -202 -82 -200 -149 1 -31 2 -33 8 -11 10 37 83
87 164 112 102 33 263 32 324 0 90 -47 94 -123 10 -206 -89 -88 -223 -137
-377 -138 -47 -1 -98 5 -115 11 -29 12 -29 12 -11 -8 53 -59 276 -47 409 21
87 44 167 149 167 220 0 138 -166 203 -379 148z"/>
<path d="M4200 592 c-34 -6 -138 -116 -180 -191 -19 -35 -53 -84 -75 -110 -22
-25 -27 -35 -12 -22 32 29 33 26 7 -34 -23 -54 -23 -55 -10 -55 5 0 17 17 27
37 22 47 104 133 126 133 24 0 22 -9 -18 -64 -51 -72 -46 -116 13 -101 19 5
22 9 12 15 -11 7 -8 19 16 64 23 44 27 59 18 73 -18 30 -49 27 -90 -9 l-38
-33 20 33 c56 98 185 232 221 232 26 0 12 -41 -29 -87 -39 -42 -40 -45 -11
-25 40 28 75 85 71 113 -3 24 -31 37 -68 31z"/>
<path d="M396 570 c-75 -24 -158 -81 -181 -125 -26 -48 -11 -75 59 -108 86
-41 87 -73 6 -115 -54 -27 -179 -31 -237 -7 l-35 15 14 -23 c8 -12 37 -30 64
-40 113 -40 284 16 284 94 0 34 -21 56 -75 79 -22 9 -47 25 -54 34 -12 15 -9
22 33 60 56 53 173 116 212 116 l29 -1 -37 -32 c-43 -38 -78 -93 -78 -124 0
-31 17 -38 24 -10 3 13 33 52 66 86 66 68 74 96 34 111 -35 14 -60 12 -128
-10z"/>
<path d="M2356 579 c-102 -24 -216 -112 -216 -168 0 -34 20 -53 81 -79 26 -11
50 -25 54 -31 13 -22 -6 -49 -56 -75 -47 -26 -57 -28 -142 -24 -51 3 -101 8
-112 12 -15 6 -13 2 8 -18 98 -91 368 -24 331 82 -6 19 -29 37 -72 60 -34 18
-62 39 -62 47 0 38 189 165 247 165 31 0 29 -5 -13 -42 -44 -39 -77 -102 -68
-130 5 -18 8 -17 26 13 11 19 45 60 75 91 45 48 52 61 44 77 -18 32 -50 37
-125 20z"/>
<path d="M2778 512 c-65 -70 -160 -209 -173 -252 -4 -14 10 2 30 35 45 73 107
159 148 202 17 18 28 35 26 38 -3 3 -17 -8 -31 -23z"/>
<path d="M3469 519 c-18 -7 -25 -15 -22 -27 5 -21 -80 -145 -139 -202 -116
-112 -216 -135 -194 -45 9 37 72 95 102 95 23 0 26 -3 21 -26 -4 -24 -3 -25
12 -10 12 13 13 20 5 34 -15 24 -49 27 -100 7 -59 -22 -94 -66 -94 -116 0 -34
4 -41 27 -50 42 -16 85 -3 157 46 l64 45 -8 -31 c-24 -83 53 -90 146 -13 l42
34 -11 -30 c-9 -25 -9 -33 5 -47 15 -14 23 -15 57 -4 22 6 43 16 47 22 4 7 -1
7 -15 0 -23 -13 -41 -7 -41 13 0 7 13 39 28 70 37 72 20 74 -51 7 -69 -65
-124 -101 -155 -101 -22 0 -24 3 -18 31 7 39 60 118 129 194 93 103 95 136 6
104z"/>
<path d="M4343 455 c-12 -8 -31 -30 -42 -49 -12 -19 -35 -39 -51 -45 -30 -10
-39 -26 -19 -33 7 -2 -19 -33 -57 -68 -61 -57 -66 -68 -6 -16 l22 20 -6 -32
c-8 -38 8 -62 41 -62 27 0 100 48 140 92 l30 33 -35 -31 c-114 -101 -171 -98
-114 5 40 75 56 87 100 73 30 -9 33 -8 23 4 -6 8 -20 14 -30 14 -28 0 -24 9
28 62 44 45 46 48 22 48 -13 0 -34 -7 -46 -15z"/>
<path d="M1896 434 c-22 -21 -15 -40 13 -37 22 3 27 -6 14 -23 -5 -5 0 -1 10
10 36 39 0 88 -37 50z"/>
<path d="M3612 408 c-20 -20 -14 -40 11 -36 14 2 23 11 25 26 4 24 -16 30 -36
10z"/>
<path d="M1697 392 c-10 -10 -17 -30 -17 -43 0 -43 -148 -159 -202 -159 -54 0
-42 70 23 124 32 27 69 31 76 9 3 -7 -10 -22 -29 -33 -18 -11 -28 -20 -22 -20
20 0 64 41 64 60 0 57 -140 23 -181 -44 -36 -59 -13 -116 46 -116 37 0 125 51
185 106 51 48 90 68 90 47 0 -5 -14 -28 -30 -53 -16 -25 -30 -52 -30 -60 0
-22 20 -40 46 -40 23 0 132 68 155 97 8 10 -4 4 -26 -13 -37 -29 -97 -64 -110
-64 -15 0 -1 38 31 81 19 27 33 53 29 59 -3 5 -24 10 -46 10 -36 0 -39 2 -29
19 12 24 13 51 2 51 -5 0 -16 -8 -25 -18z"/>
<path d="M4110 400 c-9 -6 -10 -10 -3 -10 6 0 15 5 18 10 8 12 4 12 -15 0z"/>
<path d="M960 328 c-36 -40 -64 -75 -63 -79 1 -4 -18 -42 -42 -85 -31 -55 -45
-90 -45 -116 0 -21 2 -38 5 -38 2 0 17 24 31 53 15 28 45 79 68 112 34 50 41
56 44 38 2 -12 10 -27 17 -33 54 -45 210 121 165 175 -14 17 -38 19 -60 5 -11
-7 -7 -9 15 -7 28 2 30 0 28 -31 -1 -38 -42 -95 -87 -123 -39 -24 -58 -21 -66
11 -6 20 1 38 32 80 22 30 41 53 43 50 2 -3 7 -1 12 4 5 5 3 6 -4 2 -18 -10
-16 9 2 24 13 11 13 15 3 21 -24 16 -34 9 -98 -63z"/>
<path d="M1259 388 c-21 -17 -100 -117 -118 -148 -79 -137 -106 -210 -81 -225
6 -3 10 0 10 7 0 17 84 153 125 204 70 86 90 106 117 120 61 31 78 -14 32 -82
-28 -41 -52 -61 -94 -81 -14 -6 -19 -12 -11 -12 24 -2 95 45 120 79 13 18 26
49 28 71 5 35 3 39 -21 45 -18 4 -37 -1 -62 -15 l-36 -21 21 26 c30 38 7 62
-30 32z"/>
<path d="M765 346 c-16 -8 -55 -37 -85 -66 -30 -29 -47 -47 -37 -40 15 11 17
9 17 -23 0 -44 17 -51 84 -36 40 9 58 20 84 51 45 56 51 86 22 110 -26 21 -44
22 -85 4z m80 -50 c0 -25 -4 -29 -29 -31 -32 -1 -68 -38 -59 -60 4 -11 -3 -15
-25 -15 -40 0 -46 11 -29 53 21 49 73 89 111 85 27 -3 31 -7 31 -32z"/>
<path d="M3744 341 c-83 -38 -131 -151 -69 -167 29 -7 59 8 109 55 l39 36 -28
-50 c-81 -144 -143 -203 -216 -206 -29 -2 -30 -3 -7 -6 69 -11 160 45 221 135
54 81 102 157 102 164 0 13 -69 58 -89 58 -12 0 -39 -9 -62 -19z m106 -19 c0
-25 -113 -132 -139 -132 -12 0 -21 6 -21 13 0 24 40 77 81 107 48 34 79 39 79
12z"/>
<path d="M3609 223 c-13 -16 -12 -17 4 -4 16 13 21 21 13 21 -2 0 -10 -8 -17
-17z"/>
<path d="M3460 76 c0 -16 20 -44 37 -50 13 -5 11 0 -7 21 -14 15 -26 30 -27
32 -2 2 -3 1 -3 -3z"/>
</g>
</svg>
