<svg width="587" height="81" viewBox="0 0 587 81" fill="none" xmlns="http://www.w3.org/2000/svg">
<path d="M88.8667 1.93341C83.2667 3.40008 71.2667 16.3334 64.2 28.7334C61 33.9334 57 40.0667 55.1333 42.3334C52.0667 45.8001 52.0667 45.9334 54.7333 43.6667L57.8 41.1334L55 48.2001C53.5333 52.2001 52.4667 55.6667 52.8667 55.9334C53.1333 56.3334 55.5333 53.4001 57.9333 49.4001C62.4667 42.4667 71.2667 33.6667 73.6667 33.6667C76.6 33.6667 75.9333 36.3334 71.8 41.8001C66.0667 49.1334 65 52.7334 67.6667 55.0001C70.2 57.0001 75 55.9334 79.1333 52.2001L82.3333 49.4001L79 51.5334C72.8667 55.5334 72.2 53.9334 76.6 45.5334C79.9333 39.2667 80.4667 37.0001 79.4 35.2667C77.1333 31.4001 72.8667 31.9334 67.5333 36.6001L62.4667 41.0001L65.1333 36.6001C73.2667 22.4667 89.2667 5.66675 94.4667 5.66675C100.2 5.66675 92.6 17.0001 81.6667 24.7334C79 26.6001 79.2667 26.6001 82.7333 24.6001C100.2 14.6001 104.733 -2.33325 88.8667 1.93341Z" fill="white"/>
<path d="M361.8 3.00003C342.867 8.06669 334.867 13.9334 335.133 22.8667C335.267 27 335.4 27.2667 336.2 24.3334C337.533 19.4 347.267 12.7334 358.067 9.40003C371.667 5.00003 393.133 5.13336 401.267 9.40003C413.267 15.6667 413.8 25.8 402.6 36.8667C390.733 48.6 372.867 55.1334 352.333 55.2667C346.067 55.4 339.267 54.6 337 53.8C333.133 52.2 333.133 52.2 335.533 54.8667C342.6 62.7334 372.333 61.1334 390.067 52.0667C401.667 46.2 412.333 32.2 412.333 22.7334C412.333 4.33336 390.2 -4.33331 361.8 3.00003Z" fill="white"/>
<path d="M559 1.39992C554.467 2.19992 540.6 16.8666 535 26.8666C532.467 31.5333 527.933 38.0666 525 41.5333C522.067 44.8666 521.4 46.1999 523.4 44.4666C527.667 40.5999 527.8 40.9999 524.333 48.9999C521.267 56.1999 521.267 56.3333 523 56.3333C523.667 56.3333 525.267 54.0666 526.6 51.3999C529.533 45.1333 540.467 33.6666 543.4 33.6666C546.6 33.6666 546.333 34.8666 541 42.1999C534.2 51.7999 534.867 57.6666 542.733 55.6666C545.267 54.9999 545.667 54.4666 544.333 53.6666C542.867 52.7333 543.267 51.1333 546.467 45.1333C549.533 39.2666 550.067 37.2666 548.867 35.3999C546.467 31.3999 542.333 31.7999 536.867 36.5999L531.8 40.9999L534.467 36.5999C541.933 23.5333 559.133 5.66659 563.933 5.66659C567.4 5.66659 565.533 11.1333 560.067 17.2666C554.867 22.8666 554.733 23.2666 558.6 20.5999C563.933 16.8666 568.6 9.26659 568.067 5.53325C567.667 2.33326 563.933 0.599922 559 1.39992Z" fill="white"/>
<path d="M51.8 4.33336C41.8 7.53336 30.7333 15.1334 27.6667 21C24.2 27.4 26.2 31 35.5333 35.4C47 40.8667 47.1333 45.1334 36.3333 50.7334C29.1333 54.3334 12.4667 54.8667 4.73332 51.6667L0.066658 49.6667L1.93332 52.7334C2.99999 54.3334 6.86666 56.7334 10.4667 58.0667C25.5333 63.4 48.3333 55.9334 48.3333 45.5334C48.3333 41 45.5333 38.0667 38.3333 35C35.4 33.8 32.0667 31.6667 31.1333 30.4667C29.5333 28.4667 29.9333 27.5334 35.5333 22.4667C43 15.4 58.6 7.00002 63.8 7.00002L67.6667 7.13336L62.7333 11.4C57 16.4667 52.3333 23.8 52.3333 27.9334C52.3333 32.0667 54.6 33 55.5333 29.2667C55.9333 27.5334 59.9333 22.3334 64.3333 17.8C73.1333 8.73336 74.2 5.00002 68.8667 3.00002C64.2 1.13336 60.8667 1.40002 51.8 4.33336Z" fill="white"/>
<path d="M313.133 3.13342C299.533 6.33342 284.333 18.0668 284.333 25.5334C284.333 30.0668 287 32.6001 295.133 36.0668C298.6 37.5334 301.8 39.4001 302.333 40.2001C304.067 43.1334 301.533 46.7334 294.867 50.2001C288.6 53.6668 287.267 53.9334 275.933 53.4001C269.133 53.0001 262.467 52.3334 261 51.8001C259 51.0001 259.267 51.5334 262.067 54.2001C275.133 66.3334 311.133 57.4001 306.2 43.2668C305.4 40.7334 302.333 38.3334 296.6 35.2668C292.067 32.8668 288.333 30.0668 288.333 29.0001C288.333 23.9334 313.533 7.00009 321.267 7.00009C325.4 7.00009 325.133 7.66676 319.533 12.6001C313.667 17.8001 309.267 26.2001 310.467 29.9334C311.133 32.3334 311.533 32.2001 313.933 28.2001C315.4 25.6668 319.933 20.2001 323.933 16.0668C329.933 9.66676 330.867 7.93342 329.8 5.80009C327.4 1.53342 323.133 0.866757 313.133 3.13342Z" fill="white"/>
<path d="M369.4 12.0668C360.733 21.4001 348.067 39.9334 346.333 45.6668C345.8 47.5334 347.667 45.4001 350.333 41.0001C356.333 31.2668 364.6 19.8001 370.067 14.0668C372.333 11.6668 373.8 9.40011 373.533 9.00011C373.133 8.60011 371.267 10.0668 369.4 12.0668Z" fill="white"/>
<path d="M461.533 11.1335C459.133 12.0668 458.2 13.1335 458.6 14.7335C459.267 17.5335 447.933 34.0668 440.067 41.6668C424.6 56.6001 411.267 59.6668 414.2 47.6668C415.4 42.7335 423.8 35.0001 427.8 35.0001C430.867 35.0001 431.267 35.4001 430.6 38.4668C430.067 41.6668 430.2 41.8001 432.2 39.8001C433.8 38.0668 433.933 37.1335 432.867 35.2668C430.867 32.0668 426.333 31.6668 419.533 34.3335C411.667 37.2668 407 43.1335 407 49.8001C407 54.3335 407.533 55.2668 410.6 56.4668C416.2 58.6001 421.933 56.8668 431.533 50.3335L440.067 44.3335L439 48.4668C435.8 59.5335 446.067 60.4668 458.467 50.2001L464.067 45.6668L462.6 49.6668C461.4 53.0001 461.4 54.0668 463.267 55.9335C465.267 57.8001 466.333 57.9335 470.867 56.4668C473.8 55.6668 476.6 54.3335 477.133 53.5335C477.667 52.6001 477 52.6001 475.133 53.5335C472.067 55.2668 469.667 54.4668 469.667 51.8001C469.667 50.8668 471.4 46.6001 473.4 42.4668C478.333 32.8668 476.067 32.6001 466.6 41.5335C457.4 50.2001 450.067 55.0001 445.933 55.0001C443 55.0001 442.733 54.6001 443.533 50.8668C444.467 45.6668 451.533 35.1335 460.733 25.0001C473.133 11.2668 473.4 6.86679 461.533 11.1335Z" fill="white"/>
<path d="M578.067 19.6667C576.467 20.7334 573.933 23.6667 572.467 26.2001C570.867 28.7334 567.8 31.4001 565.667 32.2001C561.667 33.5334 560.467 35.6667 563.133 36.6001C564.067 36.8667 560.6 41.0001 555.533 45.6667C547.4 53.2667 546.733 54.7334 554.733 47.8001L557.667 45.1334L556.867 49.4001C555.8 54.4667 557.933 57.6667 562.333 57.6667C565.933 57.6667 575.667 51.2667 581 45.4001L585 41.0001L580.333 45.1334C565.133 58.6001 557.533 58.2001 565.133 44.4667C570.467 34.4667 572.6 32.8667 578.467 34.7334C582.467 35.9334 582.867 35.8001 581.533 34.2001C580.733 33.1334 578.867 32.3334 577.533 32.3334C573.8 32.3334 574.333 31.1334 581.267 24.0667C587.133 18.0667 587.4 17.6667 584.2 17.6667C582.467 17.6667 579.667 18.6001 578.067 19.6667Z" fill="white"/>
<path d="M251.8 22.4667C248.867 25.2667 249.8 27.8 253.533 27.4C256.467 27 257.133 28.2 255.4 30.4667C254.733 31.1334 255.4 30.6 256.733 29.1334C261.533 23.9334 256.733 17.4 251.8 22.4667Z" fill="white"/>
<path d="M480.6 25.9334C477.933 28.6 478.733 31.2667 482.067 30.7334C483.933 30.4667 485.133 29.2667 485.4 27.2667C485.933 24.0667 483.267 23.2667 480.6 25.9334Z" fill="white"/>
<path d="M225.267 28.0667C223.933 29.4001 223 32.0667 223 33.8001C223 39.5334 203.267 55.0001 196.067 55.0001C188.867 55.0001 190.467 45.6667 199.133 38.4667C203.4 34.8667 208.333 34.3334 209.267 37.2667C209.667 38.2001 207.933 40.2001 205.4 41.6667C203 43.1334 201.667 44.3334 202.467 44.3334C205.133 44.3334 211 38.8667 211 36.3334C211 28.7334 192.333 33.2667 186.867 42.2001C182.067 50.0667 185.133 57.6667 193 57.6667C197.933 57.6667 209.667 50.8667 217.667 43.5334C224.467 37.1334 229.667 34.4667 229.667 37.2667C229.667 37.9334 227.8 41.0001 225.667 44.3334C223.533 47.6667 221.667 51.2667 221.667 52.3334C221.667 55.2667 224.333 57.6667 227.8 57.6667C230.867 57.6667 245.4 48.6001 248.467 44.7334C249.533 43.4001 247.933 44.2001 245 46.4667C240.067 50.3334 232.067 55.0001 230.333 55.0001C228.333 55.0001 230.2 49.9334 234.467 44.2001C237 40.6001 238.867 37.1334 238.333 36.3334C237.933 35.6667 235.133 35.0001 232.2 35.0001C227.4 35.0001 227 34.7334 228.333 32.4667C229.933 29.2667 230.067 25.6667 228.6 25.6667C227.933 25.6667 226.467 26.7334 225.267 28.0667Z" fill="white"/>
<path d="M547 26.9999C545.8 27.7999 545.667 28.3333 546.6 28.3333C547.4 28.3333 548.6 27.6666 549 26.9999C550.067 25.3999 549.533 25.3999 547 26.9999Z" fill="white"/>
<path d="M127 36.6C122.2 41.9333 118.467 46.6 118.6 47.1333C118.733 47.6667 116.2 52.7333 113 58.4667C108.867 65.8 107 70.4667 107 73.9333C107 76.7333 107.267 79 107.667 79C107.933 79 109.933 75.8 111.8 71.9333C113.8 68.2 117.8 61.4 120.867 57C125.4 50.3333 126.333 49.5333 126.733 51.9333C127 53.5333 128.067 55.5333 129 56.3333C136.2 62.3333 157 40.2 151 33C149.133 30.7333 145.933 30.4667 143 32.3333C141.533 33.2667 142.067 33.5333 145 33.2667C148.733 33 149 33.2667 148.733 37.4C148.6 42.4667 143.133 50.0667 137.133 53.8C131.933 57 129.4 56.6 128.333 52.3333C127.533 49.6667 128.467 47.2667 132.6 41.6667C135.533 37.6667 138.067 34.6 138.333 35C138.6 35.4 139.267 35.1333 139.933 34.4667C140.6 33.8 140.333 33.6667 139.4 34.2C137 35.5333 137.267 33 139.667 31C141.4 29.5333 141.4 29 140.067 28.2C136.867 26.0667 135.533 27 127 36.6Z" fill="white"/>
<path d="M166.867 28.6C164.067 30.8667 153.533 44.2 151.133 48.3333C140.6 66.6 137 76.3333 140.333 78.3333C141.133 78.7333 141.667 78.3333 141.667 77.4C141.667 75.1333 152.867 57 158.333 50.2C167.667 38.7333 170.333 36.0667 173.933 34.2C182.067 30.0667 184.333 36.0667 178.2 45.1333C174.467 50.6 171.267 53.2667 165.667 55.9333C163.8 56.7333 163.133 57.5333 164.2 57.5333C167.4 57.8 176.867 51.5333 180.2 47C181.933 44.6 183.667 40.4667 183.933 37.5333C184.6 32.8667 184.333 32.3333 181.133 31.5333C178.733 31 176.2 31.6667 172.867 33.5333L168.067 36.3333L170.867 32.8667C174.867 27.8 171.8 24.6 166.867 28.6Z" fill="white"/>
<path d="M101 34.2C98.8667 35.2667 93.6667 39.1334 89.6667 43C85.6667 46.8667 83.4 49.2667 84.7333 48.3334C86.7333 46.8667 87 47.1334 87 51.4C87 57.2667 89.2667 58.2 98.2 56.2C103.533 55 105.933 53.5334 109.4 49.4C115.4 41.9334 116.2 37.9334 112.333 34.7334C108.867 31.9334 106.467 31.8 101 34.2ZM111.667 40.8667C111.667 44.2 111.133 44.7334 107.8 45C103.533 45.1334 98.7333 50.0667 99.9333 53C100.467 54.4667 99.5333 55 96.6 55C91.2667 55 90.4667 53.5334 92.7333 47.9334C95.5333 41.4 102.467 36.0667 107.533 36.6C111.133 37 111.667 37.5334 111.667 40.8667Z" fill="white"/>
<path d="M498.2 34.8667C487.133 39.9333 480.733 55 489 57.1333C492.867 58.0667 496.867 56.0667 503.533 49.8L508.733 45L505 51.6667C494.2 70.8667 485.933 78.7333 476.2 79.1333C472.333 79.4 472.2 79.5333 475.267 79.9333C484.467 81.4 496.6 73.9333 504.733 61.9333C511.933 51.1333 518.333 41 518.333 40.0667C518.333 38.3333 509.133 32.3333 506.467 32.3333C504.867 32.3333 501.267 33.5333 498.2 34.8667ZM512.333 37.4C512.333 40.7333 497.267 55 493.8 55C492.2 55 491 54.2 491 53.2667C491 50.0667 496.333 43 501.8 39C508.2 34.4667 512.333 33.8 512.333 37.4Z" fill="white"/>
<path d="M480.2 50.5999C478.467 52.7333 478.6 52.8666 480.733 51.1333C482.867 49.3999 483.533 48.3333 482.467 48.3333C482.2 48.3333 481.133 49.3999 480.2 50.5999Z" fill="white"/>
<path d="M460.333 70.2001C460.333 72.3334 463 76.0667 465.267 76.8667C467 77.5334 466.733 76.8667 464.333 74.0667C462.467 72.0667 460.867 70.0667 460.733 69.8001C460.467 69.5334 460.333 69.6667 460.333 70.2001Z" fill="white"/>
</svg>
